<svg id="Capa_1" enable-background="new 0 0 512 512" height="512" viewBox="0 0 512 512" width="512" xmlns="http://www.w3.org/2000/svg"><g><g><g><path d="m300.277 136.885h156.855c4.149 0 7.512-3.363 7.512-7.512s-3.363-7.512-7.512-7.512h-156.855c-4.149 0-7.512 3.363-7.512 7.512s3.363 7.512 7.512 7.512z"/><path d="m464.644 177.205c0-4.149-3.363-7.512-7.512-7.512h-156.855c-4.149 0-7.512 3.363-7.512 7.512s3.363 7.512 7.512 7.512h156.855c4.149 0 7.512-3.363 7.512-7.512z"/><path d="m369.794 217.525h-69.517c-4.149 0-7.512 3.363-7.512 7.512s3.363 7.512 7.512 7.512h69.517c4.149 0 7.512-3.363 7.512-7.512s-3.363-7.512-7.512-7.512z"/><path d="m473.495 48.042h-267.014c-52.102-33.86-121.986-27.941-167.402 17.475-52.106 52.107-52.106 136.891 0 188.997 1.323 1.323 2.682 2.606 4.056 3.87v77.631c0 21.232 17.273 38.505 38.505 38.505h144.885l-10.328 44.588h-12.282c-27.275 0-49.465 22.19-49.465 49.465 0 9.386 7.636 17.023 17.022 17.023h212.188c9.386 0 17.023-7.636 17.023-17.023 0-27.275-22.19-49.465-49.465-49.465h-12.283l-10.325-44.588h144.885c21.232 0 38.505-17.273 38.505-38.505v-249.468c0-21.232-17.273-38.505-38.505-38.505zm-340.059-6.628c98.988 0 154.684 114.518 93.244 192.117-44.295 55.938-127.008 60.329-176.976 10.359-74.69-74.69-21.022-202.476 83.732-202.476zm105.052 244.323 20.812-20.813.096-.096c.395-.395.845-.478 1.153-.478s.758.083 1.153.478l62.317 62.317c6.427 6.427 6.427 16.884 0 23.311-6.441 6.442-16.869 6.442-23.31 0l-62.318-62.317c-.637-.636-.637-1.672 0-2.308l.091-.091c.002 0 .004-.001.006-.003zm-5.313-15.936-10.329-10.329c3.396-3.054 6.849-6.475 10.189-10.189l10.329 10.329zm-99.738 23.833c27.609 0 54.871-8.523 77.611-24.711l12.737 12.737c-1.952 5.809-.637 12.484 3.982 17.104l9.39 9.39h-178.997v-37.821c22.78 15.589 48.959 23.301 75.277 23.301zm-75.277 42.38v-12.836h194.022l36.317 36.317h-206.858c-12.947 0-23.481-10.533-23.481-23.481zm327.5 132.559c0 1.102-.896 1.998-1.998 1.998h-212.189c-1.101 0-1.997-.896-1.997-1.998 0-18.99 15.45-34.441 34.44-34.441h147.304c18.99.001 34.44 15.451 34.44 34.441zm-62.146-49.465h-91.894l10.328-44.588h71.239zm149.981-59.613h-137.382c8.924-10.23 10.127-24.891 3.607-36.317h49.076c4.149 0 7.512-3.363 7.512-7.512s-3.363-7.512-7.512-7.512h-62.521l-53.948-53.948c-3.147-3.146-7.329-4.879-11.778-4.879-1.845 0-3.638.314-5.336.887l-12.722-12.722c37.68-52.787 31.972-125.588-14.415-171.974-.833-.833-1.683-1.643-2.535-2.451h247.953c12.947 0 23.481 10.533 23.481 23.481v221.607h-75.812c-4.149 0-7.512 3.363-7.512 7.512s3.363 7.512 7.512 7.512h75.812v12.836c0 12.947-10.533 23.48-23.48 23.48z"/><path d="m133.578 266.323c58.753 0 106.307-47.546 106.307-106.307 0-58.752-47.546-106.307-106.307-106.307-53.532 0-97.3 39.297-105.08 90.151-.627 4.101 2.189 7.935 6.291 8.562 4.102.634 7.935-2.189 8.562-6.29 6.636-43.387 44.02-77.398 90.227-77.398 50.449 0 91.283 40.827 91.283 91.283 0 22.013-7.762 42.822-21.955 59.348-3.127-5.85-8.192-10.602-14.706-13.469-7.715-3.396-20.347-5.624-30.337-6.956l-.033-7.752c8.221-6.158 14.076-15.331 15.856-25.933 1.411-.635 2.708-1.531 3.83-2.662 2.419-2.435 3.739-5.666 3.716-9.098-.052-7.768-.053-21.561-.053-21.699v-11.205c0-8.465-6.055-15.542-14.062-17.127-1.747-7.795-8.722-13.638-17.038-13.638h-33.087c-17.42 0-31.592 14.173-31.592 31.593v17.921 14.289c0 5.143 3.061 9.584 7.456 11.597 1.738 10.279 7.3 19.223 15.131 25.376l.036 8.549c-9.979 1.416-22.593 3.751-30.278 7.212-5.984 2.696-10.738 7.167-13.792 12.687-10.523-12.376-17.5-27.203-20.301-43.298-.71-4.087-4.593-6.824-8.689-6.113-4.088.712-6.825 4.602-6.113 8.689 3.763 21.626 13.984 41.288 29.556 56.86 20.021 20.019 46.719 31.135 75.172 31.135zm-16.584-161.474h33.087c1.342 0 2.435 1.092 2.435 2.434 0 5.995 4.877 10.872 10.871 10.872h.336c1.342 0 2.434 1.092 2.434 2.434v2.955l-7.565-.709c-8.261-.776-16.701 1.185-23.774 5.517-3.71 2.272-7.971 3.473-12.322 3.473h-22.068v-10.409c-.002-9.134 7.431-16.567 16.566-16.567zm-16.568 46.787v-4.785h22.068c7.122 0 14.096-1.966 20.169-5.686 4.321-2.646 9.478-3.843 14.525-3.37l8.973.841c.006 3.961.016 8.944.036 12.967-3.844.921-6.774 4.267-7.013 8.367-.796 13.666-12.169 24.372-25.893 24.372-13.695 0-25.086-10.697-25.933-24.353-.253-4.063-3.138-7.387-6.932-8.353zm32.865 47.73c3.283 0 6.478-.395 9.545-1.129l.012 2.98c.007 1.672.358 3.271.973 4.739-3.204 2.038-6.947 3.155-10.86 3.166-.022 0-.041 0-.062 0-3.873 0-7.584-1.082-10.773-3.073.603-1.474.939-3.077.932-4.749l-.014-3.243c3.282.849 6.714 1.309 10.247 1.309zm-49.374 20.693c4.492-2.023 13.474-4.134 24.46-5.778 6.557 6.319 15.275 9.866 24.521 9.866h.107c9.296-.027 18.045-3.637 24.626-10.075 11.001 1.551 20.004 3.587 24.517 5.574 4.909 2.161 8.126 6.228 9.021 11.197-16.231 13.248-36.356 20.456-57.591 20.456-21.427 0-41.724-7.338-58.031-20.817 1.038-4.639 4.064-8.483 8.37-10.423z"/></g></g></g></svg>